<svg xmlns="http://www.w3.org/2000/svg" viewBox="0 0 1340.04 317.59" width="100"><defs><style>.cls-1{fill:#fff;}</style></defs><g id="Layer_2" data-name="Layer 2"><g id="Layer_1-2" data-name="Layer 1"><path d="M414.38,202.26l6,26,7.22-26h4.68l7.25,26,6-26h4.75l-8.4,32h-4.55L430,207.73l-7.42,26.5H418l-8.36-32Z"/><path d="M457.16,202.26l6,26,7.23-26h4.68l7.24,26,6-26h4.75l-8.4,32h-4.55l-7.38-26.5-7.42,26.5h-4.55l-8.35-32Z"/><path d="M499.94,202.26l6,26,7.23-26h4.68l7.24,26,6-26h4.75l-8.4,32h-4.55l-7.38-26.5-7.42,26.5h-4.55l-8.36-32Z"/><path d="M538.57,229.49h4.55v4.74h-4.55Z"/><path d="M551.14,202.26H565q5.65,0,8,3.36a7.66,7.66,0,0,1,1.4,4.57,7.18,7.18,0,0,1-1.72,5,8.49,8.49,0,0,1-2.56,1.87,10.78,10.78,0,0,1,3.67,2.11A7.65,7.65,0,0,1,576,224.9a8.87,8.87,0,0,1-2,5.59q-2.91,3.75-9.26,3.74h-13.6Zm12.2,13.52a9.85,9.85,0,0,0,4.31-.76,4.38,4.38,0,0,0,2.42-4.31,4.13,4.13,0,0,0-2.57-4.22,11.59,11.59,0,0,0-4.31-.61h-7.81v9.9Zm1.47,14.75q4,0,5.73-2.3a5.76,5.76,0,0,0,1.08-3.53,4.69,4.69,0,0,0-3.14-4.74,12,12,0,0,0-4.42-.68h-8.68v11.25Z"/><path d="M582.1,202.26h23.2v3.92h-19v9.71h17.54v3.7H586.32v10.83h19.31v3.81H582.1Z"/><path d="M612.32,202.26H625.1a12,12,0,0,1,10.09,4.68,17.38,17.38,0,0,1,3.2,10.82,21.78,21.78,0,0,1-1.89,9.2q-3.32,7.28-11.44,7.27H612.32Zm11.93,28.27a11.61,11.61,0,0,0,3.53-.45,7.83,7.83,0,0,0,4.05-3.27,13.67,13.67,0,0,0,1.81-5,19.51,19.51,0,0,0,.31-3.35q0-5.94-2.3-9.23T624.21,206H616.7v24.54Z"/><path d="M645.55,202.26h14.53a14.28,14.28,0,0,1,5.92,1.07c3,1.37,4.42,3.88,4.42,7.55a8.49,8.49,0,0,1-1.18,4.7,8.65,8.65,0,0,1-3.32,2.94,6.72,6.72,0,0,1,2.82,2,7.2,7.2,0,0,1,1,4l.15,4.29a13.67,13.67,0,0,0,.31,2.72,2.66,2.66,0,0,0,1.39,1.95v.72h-5.31a4.24,4.24,0,0,1-.35-1.06,22.53,22.53,0,0,1-.22-2.53l-.26-5.33q-.15-3.13-2.26-4.2a9.1,9.1,0,0,0-3.78-.59h-9.58v13.71h-4.33Zm14.06,14.65a8,8,0,0,0,4.69-1.22c1.15-.81,1.73-2.28,1.73-4.39q0-3.42-2.42-4.66a7.63,7.63,0,0,0-3.45-.65H649.88v10.92Z"/><path d="M678.9,202.26h4.38v32H678.9Z"/><path d="M691.43,202.26h22.18v3.92H695.76v9.71h15.69v3.81H695.76v14.53h-4.33Z"/><path d="M742.2,202.26v3.81H731.43v28.16h-4.38V206.07H716.28v-3.81Z"/><path d="M749.72,223.92a9,9,0,0,0,1.24,4.42q2.07,3.16,7.31,3.17a12.64,12.64,0,0,0,4.28-.69q3.74-1.35,3.73-4.84a4.21,4.21,0,0,0-1.58-3.72,15.88,15.88,0,0,0-5-1.89l-4.19-1a18.67,18.67,0,0,1-5.82-2.11,6.74,6.74,0,0,1-2.95-6,9.37,9.37,0,0,1,2.9-7.08q2.89-2.76,8.22-2.76a14,14,0,0,1,8.31,2.43c2.28,1.61,3.42,4.2,3.42,7.75H765.5a8.21,8.21,0,0,0-1.34-3.93q-1.89-2.51-6.44-2.51-3.68,0-5.28,1.61a5.18,5.18,0,0,0-1.61,3.75,3.66,3.66,0,0,0,1.9,3.43,27,27,0,0,0,5.63,1.75l4.34,1a13.1,13.1,0,0,1,4.85,2,7.68,7.68,0,0,1,3,6.51q0,5.31-3.76,7.59a16.49,16.49,0,0,1-8.76,2.29q-5.81,0-9.1-3a10.38,10.38,0,0,1-3.23-8.2Z"/><path d="M775.79,219.8h10.92v4H775.79Z"/><path d="M802.18,202.26h4.89l11.6,32h-4.74l-3.24-9.57H798l-3.46,9.57h-4.44Zm7.11,18.87L804.44,207l-5.16,14.12Z"/><path d="M826.15,223.92a9,9,0,0,0,1.24,4.42q2.07,3.16,7.32,3.17a12.58,12.58,0,0,0,4.27-.69q3.74-1.35,3.73-4.84a4.21,4.21,0,0,0-1.58-3.72,15.81,15.81,0,0,0-5-1.89l-4.2-1a18.67,18.67,0,0,1-5.82-2.11,6.74,6.74,0,0,1-3-6,9.37,9.37,0,0,1,2.9-7.08q2.91-2.76,8.22-2.76a14,14,0,0,1,8.31,2.43c2.28,1.61,3.42,4.2,3.42,7.75h-4.07a8.21,8.21,0,0,0-1.33-3.93q-1.9-2.51-6.45-2.51-3.67,0-5.28,1.61a5.18,5.18,0,0,0-1.61,3.75,3.68,3.68,0,0,0,1.9,3.43,27,27,0,0,0,5.63,1.75l4.35,1a13,13,0,0,1,4.84,2,7.69,7.69,0,0,1,3,6.51q0,5.31-3.77,7.59a16.48,16.48,0,0,1-8.75,2.29q-5.82,0-9.11-3a10.38,10.38,0,0,1-3.22-8.2Z"/><path d="M856.59,223.92a9,9,0,0,0,1.24,4.42q2.07,3.16,7.32,3.17a12.58,12.58,0,0,0,4.27-.69q3.74-1.35,3.73-4.84a4.21,4.21,0,0,0-1.58-3.72,15.91,15.91,0,0,0-5-1.89l-4.2-1a18.67,18.67,0,0,1-5.82-2.11,6.74,6.74,0,0,1-2.95-6,9.37,9.37,0,0,1,2.9-7.08c1.94-1.84,4.67-2.76,8.22-2.76a14,14,0,0,1,8.31,2.43c2.28,1.61,3.42,4.2,3.42,7.75h-4.07a8.21,8.21,0,0,0-1.33-3.93q-1.9-2.51-6.45-2.51-3.68,0-5.28,1.61a5.18,5.18,0,0,0-1.61,3.75,3.68,3.68,0,0,0,1.9,3.43,27,27,0,0,0,5.63,1.75l4.34,1a13,13,0,0,1,4.85,2,7.69,7.69,0,0,1,3,6.51q0,5.31-3.77,7.59a16.49,16.49,0,0,1-8.76,2.29q-5.8,0-9.1-3a10.42,10.42,0,0,1-3.23-8.2Z"/><path d="M885.18,202.26h4.38v32h-4.38Z"/><path d="M900.13,223.92a9.12,9.12,0,0,0,1.23,4.42q2.08,3.16,7.32,3.17a12.64,12.64,0,0,0,4.28-.69c2.48-.9,3.73-2.51,3.73-4.84a4.23,4.23,0,0,0-1.58-3.72,15.88,15.88,0,0,0-5-1.89l-4.2-1a18.49,18.49,0,0,1-5.81-2.11,6.75,6.75,0,0,1-3-6,9.34,9.34,0,0,1,2.91-7.08q2.9-2.76,8.21-2.76a14,14,0,0,1,8.31,2.43c2.28,1.61,3.42,4.2,3.42,7.75h-4.06a8.21,8.21,0,0,0-1.34-3.93q-1.91-2.51-6.45-2.51c-2.45,0-4.2.54-5.28,1.61a5.17,5.17,0,0,0-1.6,3.75,3.66,3.66,0,0,0,1.9,3.43,26.58,26.58,0,0,0,5.63,1.75l4.34,1a13.18,13.18,0,0,1,4.85,2,7.68,7.68,0,0,1,2.95,6.51q0,5.31-3.77,7.59a16.48,16.48,0,0,1-8.75,2.29q-5.82,0-9.11-3a10.41,10.41,0,0,1-3.22-8.2Z"/><path d="M951,202.26v3.81H940.21v28.16h-4.38V206.07H925.06v-3.81Z"/><path d="M961.68,202.26h4.9l11.6,32h-4.75l-3.24-9.57H957.55l-3.46,9.57h-4.44Zm7.12,18.87L963.94,207l-5.15,14.12Z"/><path d="M982.83,202.26h5.1l15.94,25.83V202.26H1008v32h-4.87L987,208.43v25.8h-4.13Z"/><path d="M1018.56,223.92a9,9,0,0,0,1.23,4.42c1.39,2.11,3.82,3.17,7.32,3.17a12.58,12.58,0,0,0,4.27-.69q3.73-1.35,3.74-4.84a4.21,4.21,0,0,0-1.59-3.72,15.81,15.81,0,0,0-5-1.89l-4.2-1a18.67,18.67,0,0,1-5.82-2.11,6.76,6.76,0,0,1-3-6,9.37,9.37,0,0,1,2.9-7.08q2.91-2.76,8.22-2.76a14,14,0,0,1,8.31,2.43c2.28,1.61,3.42,4.2,3.42,7.75h-4.07a8.21,8.21,0,0,0-1.33-3.93q-1.9-2.51-6.45-2.51-3.68,0-5.28,1.61a5.18,5.18,0,0,0-1.61,3.75,3.68,3.68,0,0,0,1.9,3.43,27,27,0,0,0,5.63,1.75l4.35,1a13.18,13.18,0,0,1,4.85,2,7.71,7.71,0,0,1,2.95,6.51q0,5.31-3.77,7.59a16.48,16.48,0,0,1-8.75,2.29q-5.82,0-9.11-3a10.38,10.38,0,0,1-3.22-8.2Z"/><path d="M1046.58,202.26h23.2v3.92h-19v9.71h17.54v3.7H1050.8v10.83h19.3v3.81h-23.52Z"/><path d="M1077,229.49h4.55v4.74H1077Z"/><path d="M1089.7,202.26h5.1l15.94,25.83V202.26h4.14v32H1110l-16.18-25.8v25.8h-4.13Z"/><path d="M1148.93,206.84a17.57,17.57,0,0,1,3.18,10.85,19,19,0,0,1-3.64,11.91q-4.26,5.57-12.16,5.57-7.38,0-11.6-4.88a18.39,18.39,0,0,1-3.77-11.88,19,19,0,0,1,3.22-11.1q4.14-5.91,12.23-5.92Q1144.86,201.39,1148.93,206.84Zm-3.82,20.37a17.52,17.52,0,0,0,2.56-9.44,13.49,13.49,0,0,0-3-9.08,10.05,10.05,0,0,0-8.06-3.44,10.48,10.48,0,0,0-8.1,3.41q-3.13,3.41-3.13,10.05a14.7,14.7,0,0,0,2.68,9q2.7,3.65,8.72,3.65Q1142.56,231.32,1145.11,227.21Z"/><path class="cls-1" d="M226.82,234l-8.53-8.52a195.3,195.3,0,0,1-5.55,25.33l1.17,1.17,11.88-11.89C226.15,238.08,226.5,236.05,226.82,234Z"/><path class="cls-1" d="M204.68,261.17c1-2.33,1.93-4.81,2.85-7.46L199,245.18a114.24,114.24,0,0,1-5.63,13.56l6.87,6.87Z"/><path class="cls-1" d="M201,239l8.53,8.52a193.55,193.55,0,0,0,5.56-25.33l-.62-.62a29.29,29.29,0,0,1-10.31,5Q202.68,233.29,201,239Z"/><path class="cls-1" d="M190.14,255.5A114.1,114.1,0,0,0,195.76,242l-8.52-8.53q-1.65,4.74-3.41,8.78a36,36,0,0,0,9.94.56L185.58,251Z"/><path class="cls-1" d="M200,227.33A24.18,24.18,0,0,1,189.58,226c-.12.42-.25.84-.37,1.25l8.53,8.53Q198.93,231.78,200,227.33Z"/><path class="cls-1" d="M184,230.18l-8.53-8.52a112.16,112.16,0,0,1-6.1,14.5,40.41,40.41,0,0,0,10.25,5A117.1,117.1,0,0,0,184,230.18Z"/><path class="cls-1" d="M162.47,230.48c1.09,1.08,2.2,2.1,3.35,3a111.59,111.59,0,0,0,6.42-15.1l-8.53-8.53a112.32,112.32,0,0,1-6.19,14.67A43.89,43.89,0,0,0,162.47,230.48Z"/><path class="cls-1" d="M171.25,178.39a196.87,196.87,0,0,1-5.56,25.33l8.53,8.53c.06-.23.13-.46.19-.69-3.8-8.57-2.62-18.38,3.44-26.57Z"/><path class="cls-1" d="M160.48,206.66,152,198.13c-.49,1.42-1,2.78-1.5,4.11a39.73,39.73,0,0,0,4.43,17.92A114,114,0,0,0,160.48,206.66Z"/><path class="cls-1" d="M168,175.15l-5.2-5.2a56.83,56.83,0,0,0-5.23,7.29c-1.1,5.35-2.33,10.24-3.65,14.72l8.52,8.52A193.55,193.55,0,0,0,168,175.15Z"/><path class="cls-1" d="M147.72,154.86c-.64,4.14-1.36,8-2.14,11.73a55.29,55.29,0,0,0,8.13-5.74Z"/><path class="cls-1" d="M144.49,151.63l-5.82-5.82a29.4,29.4,0,0,1-3.54,2.27,185.92,185.92,0,0,1-4.73,20.35l3.19,3.2a49.64,49.64,0,0,0,7.5-2.72C142.36,163.65,143.51,157.91,144.49,151.63Z"/><path class="cls-1" d="M124.56,173.13c.21-.58.42-1.16.63-1.76l-8.53-8.53c-1.17,3.41-2.41,6.53-3.68,9.4A40.89,40.89,0,0,0,124.56,173.13Z"/><path class="cls-1" d="M130.92,150a25.86,25.86,0,0,1-10.8,1.38q-.72,2.76-1.48,5.33l8.53,8.53C128.53,160.58,129.8,155.51,130.92,150Z"/><path class="cls-1" d="M113.43,159.61l-8.53-8.53a112.35,112.35,0,0,1-6.23,14.75,39.89,39.89,0,0,0,10.14,5.23A117.25,117.25,0,0,0,113.43,159.61Z"/><path class="cls-1" d="M115.4,153.44c.27-.91.54-1.83.79-2.77a25.59,25.59,0,0,1-5.8-2.25Z"/><path class="cls-1" d="M95.19,163.07a112.23,112.23,0,0,0,6.48-15.22l-8.53-8.53a112.27,112.27,0,0,1-6.07,14.43,48.76,48.76,0,0,0,6.11,7.44C93.84,161.85,94.51,162.47,95.19,163.07Z"/><path class="cls-1" d="M99.88,112.57a31.61,31.61,0,0,1,2.2-3.35l-1.41-1.41C100.42,109.44,100.15,111,99.88,112.57Z"/><path class="cls-1" d="M96.39,128.59c-.42,1.56-.84,3.08-1.28,4.56l3.8,3.79A24,24,0,0,1,96.39,128.59Z"/><path class="cls-1" d="M89.9,136.09l-8.52-8.53c-.4,1.14-.8,2.24-1.21,3.32a38.59,38.59,0,0,0,4.29,18.38A114.51,114.51,0,0,0,89.9,136.09Z"/><path class="cls-1" d="M83.35,121.38l8.53,8.53a196.87,196.87,0,0,0,5.56-25.33l-8.53-8.53A193.55,193.55,0,0,1,83.35,121.38Z"/><path class="cls-1" d="M72.06,137.42l1.31-1.31a118.08,118.08,0,0,0,4.77-11.79l-8.53-8.53A113.54,113.54,0,0,1,64,129.35Z"/><path class="cls-1" d="M80.12,118.15a190.24,190.24,0,0,0,5-21.76L71.73,109.76Z"/><path class="cls-1" d="M64.92,116.57l-6.86,6.85,2.69,2.7C62.18,123.24,63.58,120.06,64.92,116.57Z"/><path class="cls-1" d="M252.92,206.43l3.24,3.25,4.61-4.61C258.25,205.56,255.64,206,252.92,206.43Z"/><path class="cls-1" d="M249.68,203.2c5.71-.89,11-1.92,15.83-3L257,191.62q-7.29,1.71-15.84,3Z"/><path class="cls-1" d="M242.75,190.63a37.58,37.58,0,0,0-1.4-9.91q-5.62,1.2-12,2.19l8.53,8.53Q240.4,191.05,242.75,190.63Z"/><path class="cls-1" d="M246.62,189.92c2.47-.49,4.84-1,7.13-1.53l-2.8-2.81Z"/><path class="cls-1" d="M240.12,177.05a41.19,41.19,0,0,0-5.13-9.32c-5.28,1.28-11.05,2.44-17.36,3.42l8.53,8.53Q233.63,178.51,240.12,177.05Z"/><path class="cls-1" d="M214.39,167.91c6.53-1,12.47-2.21,17.88-3.54-.58-.64-1.17-1.28-1.79-1.9a42.6,42.6,0,0,0-8-6.31c-5.07,1.2-10.58,2.29-16.58,3.23Z"/><path class="cls-1" d="M197.19,150.71l5.44,5.44c5.15-.8,9.94-1.72,14.39-2.72A40.56,40.56,0,0,0,197.19,150.71Z"/><path class="cls-1" d="M173.17,123.68l-2.59.42,2.38,2.38C173.06,125.54,173.13,124.61,173.17,123.68Z"/><path class="cls-1" d="M158.82,112.34l8.52,8.52c2-.31,3.93-.63,5.82-1a40.07,40.07,0,0,0-1.72-9.88Q165.52,111.29,158.82,112.34Z"/><path class="cls-1" d="M147.05,100.57l8.53,8.53c5.21-.81,10-1.73,14.54-2.75a40.44,40.44,0,0,0-5.46-9.25C159.32,98.4,153.47,99.58,147.05,100.57Z"/><path class="cls-1" d="M151.28,85.72c-4.9,1.15-10.21,2.19-16,3.09l8.53,8.53c6.55-1,12.52-2.22,18-3.56l-.58-.6A43.62,43.62,0,0,0,151.28,85.72Z"/><path class="cls-1" d="M123.53,77.05l8.53,8.53c4.75-.74,9.18-1.58,13.34-2.49a37.61,37.61,0,0,0-15.64-2l6.3-6.3C132.14,75.58,128,76.36,123.53,77.05Z"/><path class="cls-1" d="M143.27,57.75l4.89,4.89,11.4-11.4-.34-.34A110.14,110.14,0,0,1,143.27,57.75Z"/><path class="cls-1" d="M120.29,73.81a202.15,202.15,0,0,0,21-4.35l2.74-2.75-7-7a186.9,186.9,0,0,1-20,4.67L114,67.5Z"/><path class="cls-1" d="M137.89,43.6,133.5,48,140,54.52A111.1,111.1,0,0,0,156,47.67l-8.53-8.53A102.94,102.94,0,0,1,137.89,43.6Z"/><path class="cls-1" d="M133.87,56.49l-4.44-4.43-7.5,7.49C126.21,58.61,130.18,57.59,133.87,56.49Z"/><path class="cls-1" d="M151,126.93l16.69,16.69a50.49,50.49,0,0,0,3.94-10L148.51,110.6A25.32,25.32,0,0,1,151,126.93Z"/><path class="cls-1" d="M196.74,172.71a25.32,25.32,0,0,1,16.33,2.45L190,152.08a49.84,49.84,0,0,0-9.94,3.95Z"/><path class="cls-1" d="M120.84,96.82a24.45,24.45,0,0,1,15.89,2l-27-27-7,6.94Z"/><path class="cls-1" d="M226.85,202.83l18.09,18.08,6.94-6.94-27-27A24.43,24.43,0,0,1,226.85,202.83Z"/><path class="cls-1" d="M181.89,180.46a31.58,31.58,0,0,1,8.25-5.63l-15.53-15.54a59.34,59.34,0,0,0-7.65,6.24Z"/><path class="cls-1" d="M106.13,104.7A32.46,32.46,0,0,1,114.34,99L98.4,83.08l-6.94,7Z"/><path class="cls-1" d="M224.65,209.33a32.86,32.86,0,0,1-5.69,8.21l14.68,14.67,6.94-6.94Z"/><path class="cls-1" d="M148.84,133.52a31.38,31.38,0,0,1-5.64,8.25l14.93,14.94a57.72,57.72,0,0,0,6.24-7.65Z"/><path d="M271.08,46.51a158.79,158.79,0,1,0,0,224.57A158.8,158.8,0,0,0,271.08,46.51Zm-5.57,153.64c-4.85,1.13-10.12,2.16-15.83,3l-8.53-8.53q8.57-1.33,15.84-3Zm-81.68,42q1.75-4,3.41-8.78l8.52,8.53a114.1,114.1,0,0,1-5.62,13.55L185.58,251l8.19-8.19A36,36,0,0,1,183.83,242.2Zm31.23-20a193.55,193.55,0,0,1-5.56,25.33L201,239q1.71-5.73,3.16-12.4a29.29,29.29,0,0,0,10.31-5Zm-40.65-10.64c-.06.23-.13.46-.19.69l-8.53-8.53a196.87,196.87,0,0,0,5.56-25.33l6.6,6.6C171.79,193.18,170.61,203,174.41,211.56ZM189.58,226A24.18,24.18,0,0,0,200,227.33q-1.06,4.46-2.25,8.44l-8.53-8.53C189.33,226.83,189.46,226.41,189.58,226Zm32.87-69.83a42.6,42.6,0,0,1,8,6.31c.62.62,1.21,1.26,1.79,1.9-5.41,1.33-11.35,2.53-17.88,3.54l-8.52-8.52C211.87,158.45,217.38,157.36,222.45,156.16Zm-19.82,0-5.44-5.44A40.56,40.56,0,0,1,217,153.43C212.57,154.43,207.78,155.35,202.63,156.15Zm10.44,19a25.32,25.32,0,0,0-16.33-2.45L180.05,156a49.84,49.84,0,0,1,9.94-3.95Zm-22.93-.33a31.58,31.58,0,0,0-8.25,5.63L167,165.53a59.34,59.34,0,0,1,7.65-6.24ZM143.2,141.77a31.38,31.38,0,0,0,5.64-8.25l15.53,15.54a57.72,57.72,0,0,1-6.24,7.65Zm28.38-8.1a50.49,50.49,0,0,1-3.94,10L151,126.93a25.32,25.32,0,0,0-2.44-16.33Zm-1-9.57,2.59-.42c0,.93-.11,1.86-.21,2.8Zm-3.24-3.24-8.52-8.52q6.7-1.05,12.62-2.34a40.07,40.07,0,0,1,1.72,9.88C171.27,120.23,169.34,120.55,167.34,120.86ZM155.58,109.1l-8.53-8.53c6.42-1,12.27-2.17,17.61-3.47a40.44,40.44,0,0,1,5.46,9.25C165.62,107.37,160.79,108.29,155.58,109.1ZM143.82,97.34l-8.53-8.53c5.78-.9,11.09-1.94,16-3.09a43.62,43.62,0,0,1,9.91,7.46l.58.6C156.34,95.12,150.37,96.32,143.82,97.34Zm1.58-14.25c-4.16.91-8.59,1.75-13.34,2.49l-8.53-8.53c4.44-.69,8.61-1.47,12.53-2.31l-6.3,6.3A37.61,37.61,0,0,1,145.4,83.09Zm2.76-20.45-4.89-4.89a110.14,110.14,0,0,0,15.95-6.85l.34.34ZM140,54.52,133.5,48l4.39-4.38a102.94,102.94,0,0,0,9.56-4.46L156,47.67A111.1,111.1,0,0,1,140,54.52Zm-6.17,2c-3.69,1.1-7.66,2.12-11.94,3.06l7.5-7.49Zm3.23,3.24,7,7-2.74,2.75a202.15,202.15,0,0,1-21,4.35L114,67.5l3.11-3.1A186.9,186.9,0,0,0,137.1,59.73Zm-.37,39.08a24.45,24.45,0,0,0-15.89-2L102.75,78.73l7-6.94Zm-44.85,31.1-8.53-8.53a193.55,193.55,0,0,0,5.56-25.33l8.53,8.53A196.87,196.87,0,0,1,91.88,129.91Zm4.51-1.32a24,24,0,0,0,2.52,8.35l-3.8-3.79C95.55,131.67,96,130.15,96.39,128.59Zm3.49-16c.27-1.55.54-3.13.79-4.76l1.41,1.41A31.61,31.61,0,0,0,99.88,112.57Zm20.24,38.77a25.86,25.86,0,0,0,10.8-1.38c-1.12,5.55-2.39,10.62-3.75,15.24l-8.53-8.53Q119.41,154.11,120.12,151.34ZM114.34,99a32.46,32.46,0,0,0-8.21,5.68L91.46,90l6.94-7Zm1.85,51.65c-.25.94-.52,1.86-.79,2.77l-5-5A25.59,25.59,0,0,0,116.19,150.67ZM80.12,118.15l-8.39-8.39L85.09,96.39A190.24,190.24,0,0,1,80.12,118.15Zm-2,6.17a118.08,118.08,0,0,1-4.77,11.79l-1.31,1.31L64,129.35a113.54,113.54,0,0,0,5.63-13.56Zm3.24,3.24,8.52,8.53a114.51,114.51,0,0,1-5.44,13.17,38.59,38.59,0,0,1-4.29-18.38C80.58,129.8,81,128.7,81.38,127.56Zm11.76,11.76,8.53,8.53a112.23,112.23,0,0,1-6.48,15.22c-.68-.6-1.35-1.22-2-1.88a48.76,48.76,0,0,1-6.11-7.44A112.27,112.27,0,0,0,93.14,139.32Zm11.76,11.76,8.53,8.53a117.25,117.25,0,0,1-4.62,11.45,39.89,39.89,0,0,1-10.14-5.23A112.35,112.35,0,0,0,104.9,151.08Zm11.76,11.76,8.53,8.53c-.21.6-.42,1.18-.63,1.76a40.89,40.89,0,0,1-11.58-.89C114.25,169.37,115.49,166.25,116.66,162.84Zm13.74,5.59a185.92,185.92,0,0,0,4.73-20.35,29.4,29.4,0,0,0,3.54-2.27l5.82,5.82c-1,6.28-2.13,12-3.4,17.28a49.64,49.64,0,0,1-7.5,2.72Zm17.32-13.57,6,6a55.29,55.29,0,0,1-8.13,5.74C146.36,162.9,147.08,159,147.72,154.86Zm9.86,22.38a56.83,56.83,0,0,1,5.23-7.29l5.2,5.2a193.55,193.55,0,0,1-5.56,25.33L153.93,192C155.25,187.48,156.48,182.59,157.58,177.24Zm6.13,32.65,8.53,8.53a111.59,111.59,0,0,1-6.42,15.1c-1.15-.94-2.26-2-3.35-3a43.89,43.89,0,0,1-4.95-5.92A112.32,112.32,0,0,0,163.71,209.89Zm11.76,11.77,8.53,8.52a117.1,117.1,0,0,1-4.38,10.95,40.41,40.41,0,0,1-10.25-5A112.16,112.16,0,0,0,175.47,221.66ZM199,245.18l8.53,8.53c-.92,2.65-1.87,5.13-2.85,7.46l-4.44,4.44-6.87-6.87A114.24,114.24,0,0,0,199,245.18Zm13.74,5.59a195.3,195.3,0,0,0,5.55-25.33l8.53,8.52c-.32,2.09-.67,4.12-1,6.09l-11.88,11.89ZM219,217.54a32.86,32.86,0,0,0,5.69-8.21l15.93,15.94-6.94,6.94Zm-1.33-46.39c6.31-1,12.08-2.14,17.36-3.42a41.19,41.19,0,0,1,5.13,9.32q-6.5,1.45-14,2.63Zm23.72,9.57a37.58,37.58,0,0,1,1.4,9.91q-2.35.42-4.83.81l-8.53-8.53Q235.74,181.92,241.35,180.72Zm5.27,9.2,4.33-4.34,2.8,2.81C251.46,188.92,249.09,189.43,246.62,189.92ZM64.92,116.57c-1.34,3.49-2.74,6.67-4.17,9.55l-2.69-2.7Zm87,81.56,8.53,8.53a114,114,0,0,1-5.6,13.5,39.73,39.73,0,0,1-4.43-17.92C151,200.91,151.46,199.55,152,198.13Zm93,22.78-18.09-18.08a24.43,24.43,0,0,0-2-15.89l27,27Zm8-14.48c2.72-.42,5.33-.87,7.85-1.36l-4.61,4.61Z"/><path d="M410.36,89.45h33.73c12,0,21.66,5.58,21.66,18.31,0,5.7-3.57,10.94-7.59,13,8.26,1.78,14.41,9.15,14.41,18.53,0,14.86-11.28,22.56-27.48,22.56H410.36Zm33.06,27.36c5.58,0,8.82-3,8.82-7.93s-3.13-8.27-9.38-8.27H423.31v16.2Zm.78,33.84c9,0,14.85-3.69,14.85-11.17s-5.36-11.62-13.62-11.62H423.31v22.79Z"/><path d="M482.05,134.23a28.46,28.46,0,0,1,28.48-28.81c14.74,0,26.58,12.84,26.58,28.36a41.52,41.52,0,0,1-.33,4.8H494.9c1.78,8.83,8.93,13.41,17.2,13.41A28.16,28.16,0,0,0,528,147.18l4.92,9.16a37.7,37.7,0,0,1-21,6.59C496.13,162.93,482.05,152.43,482.05,134.23Zm43-4.8a15.17,15.17,0,0,0-15.19-13.18c-7.14,0-13.4,5.25-15.07,13.18Z"/><path d="M545.82,134.23c0-16,10.39-28.81,25.58-28.81a23.77,23.77,0,0,1,18.42,8.15V88.33h12.4v73.48H590.38v-6.92c-4.47,5.14-11.28,8-19,8C556.21,162.93,545.82,150.09,545.82,134.23Zm44,0c0-9.72-6.48-16.86-15.3-16.86-9.38,0-16.08,7.14-16.08,16.86S565.14,151,574.52,151C583.23,151,589.82,144.06,589.82,134.23Z"/><path d="M614.72,106.53h12.4v11c2.12-5.59,8.15-12.06,20-12.06v13.51c-12.17,0-20,5.81-20,20.32v22.56h-12.4Z"/><path d="M654.59,91a7.58,7.58,0,0,1,7.48-7.6,7.69,7.69,0,0,1,7.6,7.6,7.58,7.58,0,0,1-7.6,7.48A7.48,7.48,0,0,1,654.59,91Zm1.34,15.52h12.4v55.28h-12.4Z"/><path d="M684.41,116.58h-8.72v-10h8.72v-3.79c0-13.18,7.14-18,15.85-18a31,31,0,0,1,14,3.58l-3.68,9.16a15.67,15.67,0,0,0-7.15-2c-3.57,0-6.59,1.78-6.59,8.6v2.45h15.3v10H696.8v45.23H684.41Z"/><path d="M722.49,144.06V116.7h-8.16V106.53h8.16V95.7l12.39-2.57v13.4h16.64V116.7H734.88v27.69c0,5.92,2.79,7.82,5.92,7.82a15.37,15.37,0,0,0,8-2.68l3.69,9.27a23.92,23.92,0,0,1-13.29,4.13C728,162.93,722.49,156.79,722.49,144.06Z"/><path d="M758,154.89l4.69-10.16a27.14,27.14,0,0,0,17.53,6.59c5,0,10.95-1.9,10.95-5.81s-5.59-5-11.06-6.59c-10.5-2.9-19.43-6-19.43-16.86s11.06-16.64,20.77-16.64c8.27,0,13.74,2.12,19.77,5.69l-4.58,10A29.21,29.21,0,0,0,781.56,117c-4.13,0-8.26,1.9-8.26,4.8,0,3.8,4.58,4.69,9.49,5.7,10.28,2.23,21,6.36,21,17.75,0,13-13.29,17.65-23.57,17.65C768.83,162.93,761,157.79,758,154.89Z"/><path d="M811.82,134.23c0-16,10.39-28.81,25.58-28.81a23.8,23.8,0,0,1,18.43,8.15v-7h12.39v55.28H855.83v-6.92c-4.36,5.14-11,8-18.43,8C822.21,162.93,811.82,150.09,811.82,134.23Zm44,0c0-9.72-6.48-16.86-15.3-16.86-9.38,0-16.09,7.14-16.09,16.86S831.15,151,840.53,151C849.24,151,855.83,144.06,855.83,134.23Z"/><path d="M877.82,154.89l4.69-10.16a27.17,27.17,0,0,0,17.54,6.59c5,0,10.94-1.9,10.94-5.81s-5.58-5-11-6.59c-10.5-2.9-19.44-6-19.44-16.86s11.06-16.64,20.78-16.64c8.26,0,13.73,2.12,19.76,5.69l-4.58,10A29.2,29.2,0,0,0,901.39,117c-4.13,0-8.27,1.9-8.27,4.8,0,3.8,4.58,4.69,9.5,5.7,10.27,2.23,21,6.36,21,17.75,0,13-13.29,17.65-23.56,17.65C888.66,162.93,880.84,157.79,877.82,154.89Z"/><path d="M930.64,154.89l4.7-10.16a27.12,27.12,0,0,0,17.53,6.59c5,0,10.94-1.9,10.94-5.81s-5.58-5-11-6.59c-10.5-2.9-19.43-6-19.43-16.86s11-16.64,20.77-16.64c8.26,0,13.73,2.12,19.76,5.69l-4.57,10A29.26,29.26,0,0,0,954.21,117c-4.13,0-8.27,1.9-8.27,4.8,0,3.8,4.58,4.69,9.5,5.7,10.27,2.23,21,6.36,21,17.75,0,13-13.29,17.65-23.56,17.65C941.48,162.93,933.66,157.79,930.64,154.89Z"/><path d="M985,91a7.58,7.58,0,0,1,7.48-7.6,7.69,7.69,0,0,1,7.6,7.6,7.58,7.58,0,0,1-7.6,7.48A7.48,7.48,0,0,1,985,91Zm1.34,15.52h12.4v55.28h-12.4Z"/><path d="M1008.37,154.89l4.69-10.16a27.14,27.14,0,0,0,17.53,6.59c5,0,11-1.9,11-5.81s-5.59-5-11.06-6.59c-10.5-2.9-19.43-6-19.43-16.86s11.06-16.64,20.77-16.64c8.27,0,13.74,2.12,19.77,5.69l-4.58,10a29.21,29.21,0,0,0-15.08-4.13c-4.13,0-8.26,1.9-8.26,4.8,0,3.8,4.58,4.69,9.49,5.7,10.28,2.23,21,6.36,21,17.75,0,13-13.29,17.65-23.57,17.65C1019.2,162.93,1011.38,157.79,1008.37,154.89Z"/><path d="M1067.56,144.06V116.7h-8.16V106.53h8.16V95.7L1080,93.13v13.4h16.64V116.7H1080v27.69c0,5.92,2.79,7.82,5.92,7.82a15.37,15.37,0,0,0,8-2.68l3.69,9.27a23.92,23.92,0,0,1-13.29,4.13C1073,162.93,1067.56,156.79,1067.56,144.06Z"/><path d="M1103.29,134.23c0-16,10.39-28.81,25.58-28.81a23.77,23.77,0,0,1,18.42,8.15v-7h12.4v55.28h-12.4v-6.92c-4.35,5.14-10.94,8-18.42,8C1113.68,162.93,1103.29,150.09,1103.29,134.23Zm44,0c0-9.72-6.47-16.86-15.3-16.86-9.38,0-16.08,7.14-16.08,16.86S1122.61,151,1132,151C1140.7,151,1147.29,144.06,1147.29,134.23Z"/><path d="M1172.19,106.53h12.4v7.93c4.13-6.14,10.5-9,17.87-9,15,0,19.88,9.94,19.88,24.68v31.71h-12.4V131.66c0-9-2-14.29-11.28-14.29-8.15,0-14.07,6.36-14.07,15.52v28.92h-12.4Z"/><path d="M1231.16,154.89l4.69-10.16a27.14,27.14,0,0,0,17.53,6.59c5,0,10.95-1.9,10.95-5.81s-5.59-5-11.06-6.59c-10.5-2.9-19.43-6-19.43-16.86s11.05-16.64,20.77-16.64c8.26,0,13.74,2.12,19.77,5.69l-4.58,10a29.26,29.26,0,0,0-15.08-4.13c-4.13,0-8.26,1.9-8.26,4.8,0,3.8,4.58,4.69,9.49,5.7,10.27,2.23,21,6.36,21,17.75,0,13-13.29,17.65-23.57,17.65C1242,162.93,1234.17,157.79,1231.16,154.89Z"/><path d="M1285,134.23a28.46,28.46,0,0,1,28.48-28.81c14.74,0,26.58,12.84,26.58,28.36a41.52,41.52,0,0,1-.33,4.8h-41.88c1.78,8.83,8.93,13.41,17.19,13.41a28.17,28.17,0,0,0,15.86-4.81l4.92,9.16a37.7,37.7,0,0,1-21,6.59C1299.06,162.93,1285,152.43,1285,134.23Zm43-4.8a15.17,15.17,0,0,0-15.19-13.18c-7.15,0-13.4,5.25-15.08,13.18Z"/></g></g></svg>