<svg width="33" height="26" viewBox="0 0 33 26" fill="none" xmlns="http://www.w3.org/2000/svg">
    <path d="M12.9167 21.3335C12.9167 21.9927 12.7212 22.6372 12.3549 23.1854C11.9886 23.7335 11.468 24.1608 10.8589 24.4131C10.2499 24.6653 9.57964 24.7314 8.93303 24.6027C8.28643 24.4741 7.69249 24.1567 7.22631 23.6905C6.76014 23.2243 6.44267 22.6304 6.31405 21.9838C6.18543 21.3372 6.25144 20.6669 6.50374 20.0578C6.75603 19.4488 7.18327 18.9282 7.73143 18.5619C8.2796 18.1956 8.92406 18.0001 9.58334 18.0001C10.4674 18.0001 11.3152 18.3513 11.9404 18.9764C12.5655 19.6016 12.9167 20.4494 12.9167 21.3335ZM26.25 18.0001C25.5907 18.0001 24.9463 18.1956 24.3981 18.5619C23.8499 18.9282 23.4227 19.4488 23.1704 20.0578C22.9181 20.6669 22.8521 21.3372 22.9807 21.9838C23.1093 22.6304 23.4268 23.2243 23.893 23.6905C24.3592 24.1567 24.9531 24.4741 25.5997 24.6027C26.2463 24.7314 26.9165 24.6653 27.5256 24.4131C28.1347 24.1608 28.6553 23.7335 29.0216 23.1854C29.3878 22.6372 29.5833 21.9927 29.5833 21.3335C29.5833 20.4494 29.2321 19.6016 28.607 18.9764C27.9819 18.3513 27.1341 18.0001 26.25 18.0001Z" stroke="#00529C" stroke-width="2.5" stroke-linecap="round" stroke-linejoin="round"/>
    <path d="M21.25 3.00029V21.3336H12.9167C12.9167 20.4496 12.5655 19.6017 11.9404 18.9766C11.3152 18.3515 10.4674 18.0003 9.58333 18.0003C8.69928 18.0003 7.85143 18.3515 7.22631 18.9766C6.60119 19.6017 6.25 20.4496 6.25 21.3336H2.91667C2.47464 21.3336 2.05072 21.158 1.73816 20.8455C1.42559 20.5329 1.25 20.109 1.25 19.667V3.00029C1.25 2.55826 1.42559 2.13433 1.73816 1.82177C2.05072 1.50921 2.47464 1.33362 2.91667 1.33362H19.5833C20.0254 1.33362 20.4493 1.50921 20.7618 1.82177C21.0744 2.13433 21.25 2.55826 21.25 3.00029ZM30.9667 10.917L28.4167 7.08362C28.2641 6.852 28.0562 6.6621 27.8117 6.53113C27.5673 6.40017 27.294 6.33228 27.0167 6.33362H21.25V21.3336H22.9167C22.9167 20.4496 23.2679 19.6017 23.893 18.9766C24.5181 18.3515 25.3659 18.0003 26.25 18.0003C27.1341 18.0003 27.9819 18.3515 28.607 18.9766C29.2321 19.6017 29.5833 20.4496 29.5833 21.3336H31.25V11.8336C31.2474 11.5069 31.1489 11.1881 30.9667 10.917Z" stroke="#00529C" stroke-width="2.5" stroke-linecap="round" stroke-linejoin="round"/>
    </svg>
    