<svg width="33" height="26" viewBox="0 0 36 40" fill="none" xmlns="http://www.w3.org/2000/svg">
    <path d="M7.4165 23.3338V21.6671C7.4165 20.341 7.94329 19.0693 8.88097 18.1316C9.81865 17.1939 11.0904 16.6671 12.4165 16.6671H14.0832C14.5252 16.6671 14.9491 16.8427 15.2617 17.1553C15.5742 17.4678 15.7498 17.8918 15.7498 18.3338V26.6671C15.7498 27.1091 15.5742 27.5331 15.2617 27.8456C14.9491 28.1582 14.5252 28.3338 14.0832 28.3338H12.4165C11.0904 28.3338 9.81865 27.807 8.88097 26.8693C7.94329 25.9316 7.4165 24.6599 7.4165 23.3338V23.3338ZM34.0832 23.3338V21.6671C34.0832 20.341 33.5564 19.0693 32.6187 18.1316C31.681 17.1939 30.4093 16.6671 29.0832 16.6671H27.4165C26.9745 16.6671 26.5506 16.8427 26.238 17.1553C25.9254 17.4678 25.7498 17.8918 25.7498 18.3338V26.6671C25.7498 27.1091 25.9254 27.5331 26.238 27.8456C26.5506 28.1582 26.9745 28.3338 27.4165 28.3338H29.0832C30.4093 28.3338 31.681 27.807 32.6187 26.8693C33.5564 25.9316 34.0832 24.6599 34.0832 23.3338V23.3338Z" stroke="#ffffff" stroke-width="2.5" stroke-linecap="round" stroke-linejoin="round"/>
    <path d="M7.41687 23.3335L7.10021 20.0001C6.9216 18.0995 7.14168 16.1826 7.74635 14.3719C8.35103 12.5613 9.32698 10.8968 10.6118 9.48491C11.8966 8.07304 13.462 6.94489 15.2077 6.17263C16.9535 5.40038 18.8413 5.00103 20.7502 5.00012V5.00012C22.6592 5.00103 24.5469 5.40038 26.2927 6.17263C28.0385 6.94489 29.6038 8.07304 30.8886 9.48491C32.1734 10.8968 33.1494 12.5613 33.7541 14.3719C34.3587 16.1826 34.5788 18.0995 34.4002 20.0001L34.0835 23.3335" stroke="#ffffff" stroke-width="2.5" stroke-linecap="round" stroke-linejoin="round"/>
    <path d="M29.0833 28.3336V30.0003C29.1338 30.8279 28.8558 31.6421 28.3098 32.2661C27.7638 32.8902 26.9937 33.2737 26.1667 33.3336H20.75" stroke="#ffffff" stroke-width="2.5" stroke-linecap="round" stroke-linejoin="round"/>
    </svg>
    